<svg  viewBox="0 0 17 17" fill="none" xmlns="http://www.w3.org/2000/svg">
<path d="M16.5662 1.57082L9.89337 16.4789C9.83754 16.6038 9.74286 16.7062 9.62414 16.7701C9.50543 16.834 9.36937 16.8559 9.23725 16.8322C9.10513 16.8085 8.9844 16.7407 8.89394 16.6393C8.80348 16.5379 8.74838 16.4086 8.73728 16.2717L8.17313 9.34153L1.40527 8.76385C1.27161 8.75247 1.14539 8.69606 1.04636 8.60343C0.947333 8.5108 0.881078 8.38717 0.857958 8.25188C0.834838 8.11659 0.856157 7.97727 0.918582 7.85571C0.981006 7.73414 1.08101 7.63719 1.20297 7.58002L15.7618 0.74715C15.8743 0.694333 16 0.678044 16.1218 0.700471C16.2437 0.722898 16.3559 0.782967 16.4435 0.872611C16.531 0.962255 16.5897 1.07718 16.6116 1.20196C16.6335 1.32673 16.6176 1.45539 16.566 1.57064L16.5662 1.57082Z" fill="#080809"/>
</svg>
