<svg aria-hidden="true" style="position: absolute; width: 0; height: 0; overflow: hidden;" version="1.1" xmlns="http://www.w3.org/2000/svg" xmlns:xlink="http://www.w3.org/1999/xlink">
<defs>
<symbol id="icon-menu-burger" viewBox="0 0 55 32">
<path fill="#737373" style="fill: var(--color1, #737373)" d="M1.306 0h52.245v5.224h-52.245v-5.224zM14.368 13.061h39.184v5.224h-39.184v-5.224zM30.694 26.122h22.857v5.224h-22.857v-5.224z"></path>
</symbol>
<symbol id="icon-down-arrow" viewBox="0 0 32 32">
<path d="M31.574 7.699c-0.568-0.568-1.489-0.568-2.057 0l-13.517 13.517-13.517-13.517c-0.568-0.568-1.489-0.568-2.057 0s-0.568 1.489 0 2.057l14.546 14.545c0.273 0.273 0.643 0.426 1.028 0.426s0.756-0.153 1.028-0.426l14.545-14.545c0.568-0.568 0.568-1.489 0-2.057z"></path>
</symbol>
<symbol id="icon-apple-store" viewBox="0 0 91 32">
<path fill="#080809" style="fill: var(--color1, #080809)" d="M16 0h59.429c8.837 0 16 7.163 16 16s-7.163 16-16 16h-59.429c-8.837 0-16-7.163-16-16s7.163-16 16-16z"></path>
<path fill="#fff" style="fill: var(--color2, #fff)" d="M19.922 21.943c-2.177-0.013-3.978-4.457-3.978-6.72 0-3.697 2.774-4.507 3.843-4.507 0.482 0 0.996 0.189 1.45 0.357 0.317 0.117 0.645 0.237 0.828 0.237 0.109 0 0.367-0.102 0.594-0.193 0.485-0.193 1.088-0.433 1.79-0.433 0.001 0 0.003 0 0.004 0 0.524 0 2.114 0.115 3.070 1.551l0.224 0.337-0.322 0.243c-0.46 0.347-1.3 0.981-1.3 2.236 0 1.487 0.951 2.058 1.408 2.333 0.202 0.121 0.41 0.247 0.41 0.52 0 0.179-1.426 4.016-3.498 4.016-0.507 0-0.865-0.152-1.181-0.287-0.32-0.136-0.596-0.253-1.051-0.253-0.231 0-0.523 0.109-0.832 0.225-0.423 0.158-0.901 0.337-1.444 0.337h-0.014z"></path>
<path fill="#fff" style="fill: var(--color2, #fff)" d="M24.667 7.314c0.054 1.945-1.337 3.294-2.726 3.21-0.229-1.552 1.389-3.21 2.726-3.21z"></path>
<path fill="#fff" style="fill: var(--color2, #fff)" d="M35.685 11.886h0.96l-1.306-3.84h-1.119l-1.306 3.84h0.96l0.192-0.603h1.426l0.192 0.603zM34.33 10.46l0.45-1.41 0.45 1.41h-0.9z"></path>
<path fill="#fff" style="fill: var(--color2, #fff)" d="M38.587 9.143l-0.571 1.739-0.571-1.739h-0.911l1.015 2.743h0.933l1.015-2.743h-0.911z"></path>
<path fill="#fff" style="fill: var(--color2, #fff)" d="M41.684 9.143v0.258c-0.181-0.208-0.45-0.335-0.817-0.335-0.719 0-1.311 0.631-1.311 1.448s0.592 1.448 1.311 1.448c0.368 0 0.636-0.126 0.817-0.335v0.258h0.823v-2.743h-0.823zM41.031 11.184c-0.379 0-0.653-0.258-0.653-0.669s0.274-0.669 0.653-0.669c0.379 0 0.653 0.258 0.653 0.669s-0.274 0.669-0.653 0.669z"></path>
<path fill="#fff" style="fill: var(--color2, #fff)" d="M43.111 11.886h0.823v-4.005h-0.823v4.005z"></path>
<path fill="#fff" style="fill: var(--color2, #fff)" d="M44.947 8.902c0.269 0 0.494-0.225 0.494-0.494s-0.225-0.494-0.494-0.494c-0.269 0-0.494 0.225-0.494 0.494s0.225 0.494 0.494 0.494zM44.536 11.886h0.823v-2.743h-0.823v2.743z"></path>
<path fill="#fff" style="fill: var(--color2, #fff)" d="M47.601 9.066c-0.368 0-0.636 0.126-0.817 0.335v-1.355h-0.823v3.84h0.823v-0.258c0.181 0.208 0.45 0.335 0.817 0.335 0.719 0 1.311-0.631 1.311-1.448s-0.592-1.448-1.311-1.448zM47.436 11.184c-0.379 0-0.653-0.258-0.653-0.669s0.274-0.669 0.653-0.669c0.379 0 0.653 0.258 0.653 0.669s-0.274 0.669-0.653 0.669z"></path>
<path fill="#fff" style="fill: var(--color2, #fff)" d="M49.378 11.886h0.823v-4.005h-0.823v4.005z"></path>
<path fill="#fff" style="fill: var(--color2, #fff)" d="M51.539 10.844h1.947c0.022-0.104 0.033-0.214 0.033-0.329 0-0.828-0.592-1.448-1.393-1.448-0.867 0-1.459 0.631-1.459 1.448s0.581 1.448 1.52 1.448c0.521 0 0.927-0.192 1.196-0.565l-0.658-0.379c-0.11 0.121-0.302 0.208-0.527 0.208-0.302 0-0.554-0.099-0.658-0.384zM51.522 10.229c0.077-0.28 0.285-0.433 0.598-0.433 0.247 0 0.494 0.115 0.581 0.433h-1.179z"></path>
<path fill="#fff" style="fill: var(--color2, #fff)" d="M56.674 11.963c0.806 0 1.454-0.631 1.454-1.448s-0.647-1.448-1.454-1.448c-0.806 0-1.454 0.631-1.454 1.448s0.647 1.448 1.454 1.448zM56.674 11.162c-0.357 0-0.631-0.258-0.631-0.647s0.274-0.647 0.631-0.647c0.357 0 0.631 0.258 0.631 0.647s-0.274 0.647-0.631 0.647z"></path>
<path fill="#fff" style="fill: var(--color2, #fff)" d="M60.2 9.066c-0.362 0-0.636 0.132-0.784 0.335v-0.258h-0.823v2.743h0.823v-1.498c0-0.389 0.208-0.565 0.51-0.565 0.263 0 0.477 0.159 0.477 0.499v1.563h0.823v-1.684c0-0.741-0.472-1.136-1.026-1.136z"></path>
<path fill="#fff" style="fill: var(--color2, #fff)" d="M64.77 9.933v-0.79h-0.565v-0.768l-0.823 0.247v0.521h-0.439v0.79h0.439v0.971c0 0.768 0.313 1.092 1.388 0.982v-0.746c-0.362 0.022-0.565 0-0.565-0.236v-0.971h0.565z"></path>
<path fill="#fff" style="fill: var(--color2, #fff)" d="M66.843 9.066c-0.362 0-0.636 0.132-0.784 0.335v-1.355h-0.823v3.84h0.823v-1.498c0-0.389 0.208-0.565 0.51-0.565 0.263 0 0.477 0.159 0.477 0.499v1.563h0.823v-1.684c0-0.741-0.472-1.136-1.026-1.136z"></path>
<path fill="#fff" style="fill: var(--color2, #fff)" d="M69.169 10.844h1.947c0.022-0.104 0.033-0.214 0.033-0.329 0-0.828-0.592-1.448-1.393-1.448-0.867 0-1.459 0.631-1.459 1.448s0.582 1.448 1.52 1.448c0.521 0 0.927-0.192 1.196-0.565l-0.658-0.379c-0.11 0.121-0.302 0.208-0.527 0.208-0.302 0-0.554-0.099-0.658-0.384zM69.152 10.229c0.077-0.28 0.285-0.433 0.598-0.433 0.247 0 0.494 0.115 0.582 0.433h-1.179z"></path>
<path fill="#fff" style="fill: var(--color2, #fff)" d="M37.531 21.943h1.6l-2.176-6.4h-1.865l-2.176 6.4h1.6l0.32-1.006h2.377l0.32 1.006zM35.273 19.566l0.75-2.35 0.75 2.35h-1.499z"></path>
<path fill="#fff" style="fill: var(--color2, #fff)" d="M42.365 17.244c-0.613 0-1.061 0.21-1.362 0.558v-0.43h-1.371v6.4h1.371v-2.258c0.302 0.347 0.75 0.558 1.362 0.558 1.198 0 2.185-1.051 2.185-2.414s-0.987-2.414-2.185-2.414zM42.091 20.773c-0.631 0-1.088-0.43-1.088-1.115s0.457-1.115 1.088-1.115c0.631 0 1.088 0.43 1.088 1.115s-0.457 1.115-1.088 1.115z"></path>
<path fill="#fff" style="fill: var(--color2, #fff)" d="M48.062 17.244c-0.613 0-1.061 0.21-1.362 0.558v-0.43h-1.371v6.4h1.371v-2.258c0.302 0.347 0.75 0.558 1.362 0.558 1.198 0 2.185-1.051 2.185-2.414s-0.987-2.414-2.185-2.414zM47.787 20.773c-0.631 0-1.088-0.43-1.088-1.115s0.457-1.115 1.088-1.115c0.631 0 1.088 0.43 1.088 1.115s-0.457 1.115-1.088 1.115z"></path>
<path fill="#fff" style="fill: var(--color2, #fff)" d="M51.024 21.943h1.371v-6.674h-1.371v6.674z"></path>
<path fill="#fff" style="fill: var(--color2, #fff)" d="M54.624 20.206h3.246c0.037-0.174 0.055-0.357 0.055-0.549 0-1.381-0.987-2.414-2.322-2.414-1.445 0-2.432 1.051-2.432 2.414s0.969 2.414 2.533 2.414c0.869 0 1.545-0.32 1.993-0.942l-1.097-0.631c-0.183 0.201-0.503 0.347-0.878 0.347-0.503 0-0.923-0.165-1.097-0.64zM54.597 19.182c0.128-0.466 0.475-0.722 0.997-0.722 0.411 0 0.823 0.192 0.969 0.722h-1.966z"></path>
<path fill="#fff" style="fill: var(--color2, #fff)" d="M63.274 22.071c1.39 0 2.377-0.731 2.377-1.966 0-1.353-1.088-1.691-2.057-1.984-0.997-0.302-1.152-0.503-1.152-0.795 0-0.256 0.229-0.485 0.686-0.485 0.585 0 0.887 0.283 1.106 0.741l1.234-0.722c-0.466-0.942-1.289-1.445-2.341-1.445-1.106 0-2.148 0.713-2.148 1.947 0 1.225 0.932 1.682 1.883 1.947 0.96 0.265 1.326 0.421 1.326 0.814 0 0.247-0.174 0.521-0.869 0.521-0.722 0-1.115-0.357-1.344-0.887l-1.262 0.731c0.357 0.942 1.216 1.582 2.56 1.582z"></path>
<path fill="#fff" style="fill: var(--color2, #fff)" d="M68.882 18.688v-1.317h-0.942v-1.28l-1.371 0.411v0.869h-0.731v1.317h0.731v1.618c0 1.28 0.521 1.819 2.313 1.637v-1.243c-0.603 0.037-0.942 0-0.942-0.393v-1.618h0.942z"></path>
<path fill="#fff" style="fill: var(--color2, #fff)" d="M71.763 22.071c1.344 0 2.423-1.051 2.423-2.414s-1.079-2.414-2.423-2.414c-1.344 0-2.423 1.051-2.423 2.414s1.079 2.414 2.423 2.414zM71.763 20.736c-0.594 0-1.051-0.43-1.051-1.079s0.457-1.079 1.051-1.079c0.594 0 1.051 0.43 1.051 1.079s-0.457 1.079-1.051 1.079z"></path>
<path fill="#fff" style="fill: var(--color2, #fff)" d="M76.333 18.185v-0.814h-1.371v4.571h1.371v-2.066c0-0.905 0.805-1.134 1.371-1.042v-1.554c-0.576 0-1.189 0.293-1.371 0.905z"></path>
<path fill="#fff" style="fill: var(--color2, #fff)" d="M79.437 20.206h3.246c0.037-0.174 0.055-0.357 0.055-0.549 0-1.381-0.987-2.414-2.322-2.414-1.445 0-2.432 1.051-2.432 2.414s0.969 2.414 2.533 2.414c0.869 0 1.545-0.32 1.993-0.942l-1.097-0.631c-0.183 0.201-0.503 0.347-0.878 0.347-0.503 0-0.923-0.165-1.097-0.64zM79.409 19.182c0.128-0.466 0.475-0.722 0.997-0.722 0.411 0 0.823 0.192 0.969 0.722h-1.966z"></path>
</symbol>
<symbol id="icon-google-play" viewBox="0 0 98 32">
<path fill="#080809" style="fill: var(--color1, #080809)" d="M16 0h65.829c8.837 0 16 7.163 16 16s-7.163 16-16 16h-65.829c-8.837 0-16-7.163-16-16s7.163-16 16-16z"></path>
<path fill="#2196f3" style="fill: var(--color3, #2196f3)" d="M26.064 15.544l-9.183 8.842c-0.43-0.294-0.685-0.783-0.681-1.303v-15.078c-0.005-0.521 0.251-1.010 0.681-1.303l9.183 8.842z"></path>
<path fill="#4caf50" style="fill: var(--color4, #4caf50)" d="M29.277 12.456l-3.213 3.089-9.183-8.842c0.035-0.027 0.071-0.052 0.108-0.075 0.485-0.294 1.091-0.304 1.586-0.025l10.702 5.853z"></path>
<path fill="#f0bb1f" style="fill: var(--color5, #f0bb1f)" d="M33.171 15.544c0.006 0.588-0.313 1.131-0.83 1.411l-3.064 1.677-3.213-3.089 3.213-3.089 3.064 1.677c0.517 0.28 0.836 0.823 0.83 1.411z"></path>
<path fill="#f15a2b" style="fill: var(--color6, #f15a2b)" d="M29.277 18.633l-10.702 5.853c-0.495 0.274-1.099 0.265-1.586-0.025-0.037-0.023-0.073-0.048-0.108-0.075l9.183-8.842 3.213 3.089z"></path>
<path fill="#fff" style="fill: var(--color2, #fff)" d="M43.908 10.862h-2.567v1.024h1.368c-0.183 0.49-0.629 0.79-1.309 0.79-0.995 0-1.609-0.636-1.609-1.507 0-0.9 0.644-1.536 1.507-1.536 0.578 0 1.039 0.263 1.251 0.6l0.995-0.571c-0.432-0.688-1.258-1.17-2.238-1.17-1.507 0-2.684 1.185-2.684 2.67 0 1.47 1.156 2.655 2.765 2.655 1.434 0 2.523-0.951 2.523-2.516v-0.439z"></path>
<path fill="#fff" style="fill: var(--color2, #fff)" d="M45.372 12.588v-0.907h1.829v-1.112h-1.829v-0.848h2.011v-1.126h-3.182v5.12h3.218v-1.126h-2.048z"></path>
<path fill="#fff" style="fill: var(--color2, #fff)" d="M51.152 8.594h-3.803v1.126h1.317v3.994h1.17v-3.994h1.317v-1.126z"></path>
<path fill="#fff" style="fill: var(--color2, #fff)" d="M52.762 8.594v5.12h1.17v-5.12h-1.17z"></path>
<path fill="#fff" style="fill: var(--color2, #fff)" d="M57.884 8.594h-3.803v1.126h1.317v3.994h1.17v-3.994h1.317v-1.126z"></path>
<path fill="#fff" style="fill: var(--color2, #fff)" d="M61.936 13.817c1.47 0 2.662-1.156 2.662-2.662s-1.192-2.662-2.662-2.662c-1.47 0-2.662 1.156-2.662 2.662s1.192 2.662 2.662 2.662zM61.936 12.676c-0.834 0-1.492-0.607-1.492-1.521s0.658-1.521 1.492-1.521c0.834 0 1.492 0.607 1.492 1.521s-0.658 1.521-1.492 1.521z"></path>
<path fill="#fff" style="fill: var(--color2, #fff)" d="M67.744 8.594v2.779l-1.975-2.779h-0.878v5.12h1.17v-2.779l1.975 2.779h0.878v-5.12h-1.17z"></path>
<path fill="#fff" style="fill: var(--color2, #fff)" d="M43.908 19.558v0.198c0 0.639-0.227 1.178-0.68 1.616-0.453 0.434-1.051 0.651-1.792 0.651-0.78 0-1.424-0.254-1.931-0.761-0.507-0.512-0.761-1.139-0.761-1.88s0.251-1.365 0.753-1.872c0.502-0.512 1.139-0.768 1.909-0.768 0.468 0 0.897 0.112 1.287 0.336 0.395 0.224 0.7 0.524 0.914 0.9l-0.344 0.205c-0.171-0.322-0.424-0.58-0.761-0.775-0.332-0.195-0.697-0.293-1.097-0.293-0.663 0-1.209 0.219-1.638 0.658-0.424 0.434-0.636 0.97-0.636 1.609s0.215 1.178 0.644 1.616c0.429 0.434 0.983 0.651 1.66 0.651 0.6 0 1.085-0.163 1.456-0.49s0.578-0.739 0.622-1.236h-2.172v-0.366h2.567z"></path>
<path fill="#fff" style="fill: var(--color2, #fff)" d="M49.1 21.255c-0.512 0.512-1.136 0.768-1.872 0.768s-1.36-0.256-1.872-0.768c-0.512-0.517-0.768-1.141-0.768-1.872s0.256-1.353 0.768-1.865c0.512-0.517 1.136-0.775 1.872-0.775s1.36 0.258 1.872 0.775c0.512 0.512 0.768 1.134 0.768 1.865s-0.256 1.356-0.768 1.872zM45.625 20.992c0.439 0.439 0.973 0.658 1.602 0.658s1.16-0.219 1.594-0.658c0.439-0.444 0.658-0.98 0.658-1.609s-0.219-1.163-0.658-1.602c-0.434-0.444-0.965-0.666-1.594-0.666s-1.163 0.222-1.602 0.666c-0.434 0.439-0.651 0.973-0.651 1.602s0.217 1.165 0.651 1.609z"></path>
<path fill="#fff" style="fill: var(--color2, #fff)" d="M55.071 21.255c-0.512 0.512-1.136 0.768-1.872 0.768s-1.36-0.256-1.872-0.768c-0.512-0.517-0.768-1.141-0.768-1.872s0.256-1.353 0.768-1.865c0.512-0.517 1.136-0.775 1.872-0.775s1.36 0.258 1.872 0.775c0.512 0.512 0.768 1.134 0.768 1.865s-0.256 1.356-0.768 1.872zM51.597 20.992c0.439 0.439 0.973 0.658 1.602 0.658s1.16-0.219 1.595-0.658c0.439-0.444 0.658-0.98 0.658-1.609s-0.219-1.163-0.658-1.602c-0.434-0.444-0.965-0.666-1.594-0.666s-1.163 0.222-1.602 0.666c-0.434 0.439-0.651 0.973-0.651 1.602s0.217 1.165 0.651 1.609z"></path>
<path fill="#fff" style="fill: var(--color2, #fff)" d="M61.693 19.558v0.198c0 0.639-0.227 1.178-0.68 1.616-0.453 0.434-1.051 0.651-1.792 0.651-0.78 0-1.424-0.254-1.931-0.761-0.507-0.512-0.761-1.139-0.761-1.88s0.251-1.365 0.753-1.872c0.502-0.512 1.139-0.768 1.909-0.768 0.468 0 0.897 0.112 1.287 0.336 0.395 0.224 0.7 0.524 0.914 0.9l-0.344 0.205c-0.171-0.322-0.424-0.58-0.761-0.775-0.332-0.195-0.697-0.293-1.097-0.293-0.663 0-1.209 0.219-1.638 0.658-0.424 0.434-0.636 0.97-0.636 1.609s0.215 1.178 0.644 1.616c0.429 0.434 0.983 0.651 1.66 0.651 0.6 0 1.085-0.163 1.456-0.49s0.578-0.739 0.622-1.236h-2.172v-0.366h2.567z"></path>
<path fill="#fff" style="fill: var(--color2, #fff)" d="M63.053 21.577h2.414v0.366h-2.801v-5.12h0.388v4.754z"></path>
<path fill="#fff" style="fill: var(--color2, #fff)" d="M66.66 21.577h2.56v0.366h-2.948v-5.12h2.911v0.366h-2.523v1.989h2.341v0.366h-2.341v2.033z"></path>
<path fill="#fff" style="fill: var(--color2, #fff)" d="M73.863 16.823c0.458 0 0.839 0.151 1.141 0.454s0.454 0.68 0.454 1.134c0 0.453-0.151 0.831-0.454 1.134-0.302 0.297-0.683 0.446-1.141 0.446h-1.353v1.953h-0.388v-5.12h1.741zM73.863 19.624c0.351 0 0.639-0.115 0.863-0.344 0.229-0.229 0.344-0.519 0.344-0.87 0-0.356-0.115-0.648-0.344-0.878-0.224-0.229-0.512-0.344-0.863-0.344h-1.353v2.436h1.353z"></path>
<path fill="#fff" style="fill: var(--color2, #fff)" d="M76.803 21.577h2.414v0.366h-2.801v-5.12h0.388v4.754z"></path>
<path fill="#fff" style="fill: var(--color2, #fff)" d="M83.61 21.943l-0.497-1.302h-2.567l-0.497 1.302h-0.41l1.99-5.12h0.41l1.982 5.12h-0.41zM80.692 20.275h2.282l-1.141-2.977-1.141 2.977z"></path>
<path fill="#fff" style="fill: var(--color2, #fff)" d="M87.663 16.823l-1.865 3.014v2.107h-0.388v-2.107l-1.865-3.014h0.439l1.624 2.64 1.616-2.64h0.439z"></path>
</symbol>
<symbol id="icon-youtube" viewBox="0 0 44 32">
<path fill="#e42f08" style="fill: var(--color7, #e42f08)" d="M42.613 5.211c-0.242-0.947-0.718-1.811-1.377-2.505s-1.481-1.193-2.382-1.448c-3.318-0.944-16.653-0.944-16.653-0.944s-13.334 0-16.653 0.944c-0.901 0.255-1.723 0.754-2.382 1.448s-1.135 1.558-1.377 2.505c-0.62 3.559-0.92 7.17-0.898 10.788-0.022 3.618 0.278 7.229 0.898 10.788 0.243 0.948 0.717 1.811 1.377 2.505s1.481 1.193 2.382 1.448c3.318 0.944 16.653 0.944 16.653 0.944s13.334 0 16.653-0.944c0.901-0.255 1.723-0.755 2.382-1.448s1.135-1.558 1.377-2.505c0.62-3.559 0.92-7.17 0.898-10.788 0.022-3.618-0.279-7.229-0.898-10.788zM17.939 22.722v-13.445l11.066 6.723-11.066 6.723z"></path>
</symbol>
<symbol id="icon-twitter" viewBox="0 0 40 32">
<path fill="#21a6df" style="fill: var(--color8, #21a6df)" d="M39.201 3.945c-1.411 0.617-2.946 1.062-4.527 1.235 1.642-0.99 2.871-2.553 3.457-4.397-1.54 0.93-3.228 1.582-4.988 1.927-0.736-0.798-1.625-1.434-2.613-1.867s-2.054-0.656-3.131-0.654c-4.356 0-7.86 3.583-7.86 7.981 0 0.617 0.074 1.235 0.194 1.829-6.523-0.346-12.341-3.509-16.208-8.35-0.705 1.222-1.074 2.612-1.069 4.028 0 2.769 1.388 5.211 3.503 6.648-1.247-0.050-2.465-0.398-3.554-1.015v0.098c0 3.878 2.701 7.092 6.302 7.831-0.676 0.178-1.371 0.269-2.070 0.271-0.512 0-0.996-0.052-1.484-0.122 0.996 3.162 3.895 5.459 7.348 5.534-2.701 2.147-6.085 3.41-9.759 3.41-0.659 0-1.268-0.023-1.899-0.098 3.485 2.269 7.62 3.579 12.073 3.579 14.456 0 22.367-12.154 22.367-22.703 0-0.346 0-0.692-0.023-1.039 1.531-1.137 2.872-2.545 3.941-4.126z"></path>
</symbol>
<symbol id="icon-instagram" viewBox="0 0 33 32">
<path fill="#e61f5a" style="fill: var(--color9, #e61f5a)" d="M16.669 7.796c-4.54 0-8.204 3.664-8.204 8.204s3.664 8.204 8.204 8.204c4.54 0 8.204-3.664 8.204-8.204s-3.664-8.204-8.204-8.204zM16.669 21.332c-2.936 0-5.332-2.396-5.332-5.332s2.396-5.332 5.332-5.332c2.936 0 5.332 2.396 5.332 5.332s-2.396 5.332-5.332 5.332zM25.209 5.548c-1.060 0-1.916 0.856-1.916 1.916s0.856 1.916 1.916 1.916c1.060 0 1.916-0.852 1.916-1.916 0-0.252-0.049-0.501-0.145-0.734s-0.237-0.444-0.415-0.622-0.389-0.319-0.622-0.415c-0.233-0.096-0.482-0.146-0.734-0.145zM32.661 16c0-2.208 0.020-4.396-0.104-6.6-0.124-2.56-0.708-4.832-2.58-6.704-1.876-1.876-4.144-2.456-6.704-2.58-2.208-0.124-4.396-0.104-6.6-0.104-2.208 0-4.396-0.020-6.6 0.104-2.56 0.124-4.832 0.708-6.704 2.58-1.876 1.876-2.456 4.144-2.58 6.704-0.124 2.208-0.104 4.396-0.104 6.6s-0.020 4.396 0.104 6.6c0.124 2.56 0.708 4.832 2.58 6.704 1.876 1.876 4.144 2.456 6.704 2.58 2.208 0.124 4.396 0.104 6.6 0.104 2.208 0 4.396 0.020 6.6-0.104 2.56-0.124 4.832-0.708 6.704-2.58 1.876-1.876 2.456-4.144 2.58-6.704 0.128-2.204 0.104-4.392 0.104-6.6zM29.141 25.432c-0.292 0.728-0.644 1.272-1.208 1.832-0.564 0.564-1.104 0.916-1.832 1.208-2.104 0.836-7.1 0.648-9.432 0.648s-7.332 0.188-9.436-0.644c-0.728-0.292-1.272-0.644-1.832-1.208-0.564-0.564-0.916-1.104-1.208-1.832-0.832-2.108-0.644-7.104-0.644-9.436s-0.188-7.332 0.644-9.436c0.292-0.728 0.644-1.272 1.208-1.832s1.104-0.916 1.832-1.208c2.104-0.832 7.104-0.644 9.436-0.644s7.332-0.188 9.436 0.644c0.728 0.292 1.272 0.644 1.832 1.208 0.564 0.564 0.916 1.104 1.208 1.832 0.832 2.104 0.644 7.104 0.644 9.436s0.188 7.328-0.648 9.432z"></path>
</symbol>
<symbol id="icon-facebook" viewBox="0 0 33 32">
<path fill="#335bf5" style="fill: var(--color10, #335bf5)" d="M31.387 0h-29.44c-0.708 0-1.28 0.572-1.28 1.28v29.44c0 0.708 0.572 1.28 1.28 1.28h29.44c0.708 0 1.28-0.572 1.28-1.28v-29.44c0-0.708-0.572-1.28-1.28-1.28zM27.691 9.34h-2.556c-2.004 0-2.392 0.952-2.392 2.352v3.084h4.784l-0.624 4.828h-4.16v12.396h-4.988v-12.392h-4.172v-4.832h4.172v-3.56c0-4.132 2.524-6.384 6.212-6.384 1.768 0 3.284 0.132 3.728 0.192v4.316h-0.004z"></path>
</symbol>
<symbol id="icon-weather" viewBox="0 0 39 32">
<path fill="#fff1da" style="fill: var(--color1, #fff1da)" d="M39.385 24.615c0 4.078-3.306 7.385-7.385 7.385h-11.077c-1.133 0-2.051-0.918-2.051-2.051v-13.949c0-2.266 1.837-4.103 4.103-4.103h14.359c1.133 0 2.051 0.918 2.051 2.051v10.667z"></path>
<path fill="#407093" style="fill: var(--color2, #407093)" d="M11.293 20.783l-0.775-0.371-4.602 6.804h5.136l0.495-0.323v-5.878l-0.254-0.233z"></path>
<path fill="#365e7d" style="fill: var(--color3, #365e7d)" d="M10.589 20.445l-1.742-0.834h-0.328l-4.925 7.281 0.293 0.323h2.122l4.579-6.77z"></path>
<path fill="#4a80aa" style="fill: var(--color4, #4a80aa)" d="M12.472 26.893h-6.791c-0.308 0-0.559 0.25-0.559 0.559v0.708c0 0.308 0.25 0.558 0.558 0.559h6.791c0.309 0 0.559-0.25 0.559-0.559v-0.708c0-0.309-0.25-0.559-0.559-0.559z"></path>
<path fill="#407093" style="fill: var(--color2, #407093)" d="M5.238 28.159v-0.708c0-0.308 0.25-0.559 0.559-0.559h-3.597c-0.308 0-0.559 0.25-0.559 0.559v0.708c0 0.308 0.25 0.559 0.559 0.559h3.597c-0.309 0-0.559-0.25-0.559-0.559z"></path>
<path fill="#4a80aa" style="fill: var(--color4, #4a80aa)" d="M10.355 16.403c-0.209 0.431-0.327 0.915-0.327 1.426 0 1.398 0.875 2.59 2.107 3.062 0.529-0.166 0.999-0.465 1.37-0.858v-0.714l-3.15-2.916z"></path>
<path fill="#407093" style="fill: var(--color2, #407093)" d="M10.083 17.841c0-0.5 0.116-0.972 0.32-1.393l-1.007-0.932h-0.409c-0.618 0.583-1.004 1.409-1.004 2.325 0 1.765 1.431 3.196 3.196 3.196 0.368 0 0.72-0.063 1.049-0.177-1.249-0.435-2.146-1.622-2.146-3.019z"></path>
<path fill="#ffd086" style="fill: var(--color5, #ffd086)" d="M28.641 0.379c-0.506-0.506-1.326-0.506-1.832 0l-1.236 1.236v0.157l1.543 1.608 0.289 0.067 1.236-1.236c0.506-0.506 0.506-1.326 0-1.832z"></path>
<path fill="#ffc365" style="fill: var(--color6, #ffc365)" d="M28.983 0.991c-0.054-0.224-0.167-0.437-0.342-0.611-0.506-0.506-1.326-0.506-1.832 0l-1.236 1.236v0.157l0.818 0.853c0.488-0.507 0.972-1.008 1.221-1.257 0.415-0.415 1.021-0.418 1.371-0.377z"></path>
<path fill="#365e7d" style="fill: var(--color3, #365e7d)" d="M24.409 3.672c-0.014 0-0.029-0.001-0.043-0.002l-14.284-1.406c-0.238-0.023-0.412-0.236-0.389-0.474s0.236-0.412 0.474-0.389l14.284 1.406c0.238 0.023 0.412 0.236 0.389 0.474-0.022 0.224-0.211 0.391-0.431 0.391z"></path>
<path fill="#407093" style="fill: var(--color2, #407093)" d="M14.214 6.346c-0.192 0-0.368-0.129-0.419-0.324-0.061-0.232 0.078-0.468 0.309-0.529l10.195-2.674c0.232-0.061 0.468 0.078 0.529 0.309s-0.078 0.468-0.309 0.529l-10.195 2.674c-0.037 0.010-0.074 0.014-0.11 0.014z"></path>
<path fill="#365e7d" style="fill: var(--color3, #365e7d)" d="M27.178 19.338c-0.22 0-0.409-0.167-0.431-0.391l-1.397-14.292c-0.023-0.238 0.151-0.45 0.389-0.474 0.238-0.022 0.45 0.151 0.473 0.389l1.397 14.292c0.023 0.238-0.151 0.45-0.389 0.474-0.014 0.001-0.029 0.002-0.043 0.002z"></path>
<path fill="#407093" style="fill: var(--color2, #407093)" d="M23.067 15.281c-0.037 0-0.074-0.005-0.111-0.015-0.231-0.061-0.369-0.299-0.308-0.53l2.713-10.234c0.061-0.231 0.299-0.369 0.53-0.308s0.369 0.299 0.308 0.53l-2.713 10.234c-0.051 0.194-0.227 0.322-0.419 0.322z"></path>
<path fill="#ffc365" style="fill: var(--color6, #ffc365)" d="M24.331 2.857l1.239-1.239 1.831 1.831-1.239 1.239-1.831-1.831z"></path>
<path fill="#ffa90f" style="fill: var(--color7, #ffa90f)" d="M25.272 3.793c0.298-0.312 0.763-0.798 1.213-1.266l-0.912-0.912-1.239 1.239 0.938 0.938z"></path>
<path fill="#4a80aa" style="fill: var(--color4, #4a80aa)" d="M26.441 5.396c-0.111 0-0.222-0.042-0.306-0.127l-2.383-2.383c-0.169-0.169-0.169-0.444 0-0.613s0.444-0.169 0.613 0l2.383 2.383c0.169 0.169 0.169 0.444 0 0.613-0.085 0.085-0.196 0.127-0.306 0.127z"></path>
<path fill="#b5dcff" style="fill: var(--color8, #b5dcff)" d="M26.721 20.118l-14.511-14.637c-1.924 4.343-2.258 9.006-0.818 13.026 3.978 3.588 9.919 4.139 15.39 1.884l-0.061-0.273z"></path>
<path fill="#8bcaff" style="fill: var(--color9, #8bcaff)" d="M12.287 5.559l-3.325-3.354-0.333 0.033c-2.342 5.681-1.658 11.871 2.311 15.841 0.24 0.24 0.489 0.469 0.745 0.685-1.673-4.016-1.402-8.792 0.601-13.205z"></path>
<path fill="#dbedff" style="fill: var(--color10, #dbedff)" d="M28.047 19.078l-14.717-14.717c-0.145 0.022-0.284 0.088-0.396 0.2l-0.64 0.64c-0.137 0.137-0.206 0.317-0.208 0.497l14.671 14.671c0.218 0.218 0.572 0.218 0.79 0l0.501-0.5c0.218-0.218 0.218-0.572-0-0.79z"></path>
<path fill="#b5dcff" style="fill: var(--color8, #b5dcff)" d="M12.316 5.211l0.627-0.627c0.115-0.115 0.261-0.182 0.412-0.199l-3.412-3.412c-0.218-0.218-0.572-0.218-0.79 0l-0.501 0.501c-0.218 0.218-0.218 0.572 0 0.79l3.46 3.46c-0.005-0.185 0.063-0.371 0.204-0.512z"></path>
</symbol>
<symbol id="icon-plane" viewBox="0 0 39 32">
<path fill="#fff1da" style="fill: var(--color1, #fff1da)" d="M8.145 13.862c0 2.945 2.388 5.333 5.333 5.333h8.302c0.818 0 1.481-0.663 1.481-1.481v-10.215c0-1.636-1.327-2.963-2.963-2.963h-10.672c-0.818 0-1.481 0.663-1.481 1.481v7.844z"></path>
<path fill="#d5d6db" style="fill: var(--color2, #d5d6db)" d="M22.744 17.986c-0.407 0.051-0.797 0.186-1.148 0.397-0.915 0.532-1.415 1.38-1.116 1.895s1.283 0.5 2.198-0.031c0.356-0.201 0.667-0.474 0.913-0.801 0.114-0.159 0.123-0.372 0.024-0.542l-0.388-0.669c-0.099-0.171-0.288-0.268-0.482-0.248z"></path>
<path fill="#d5d6db" style="fill: var(--color2, #d5d6db)" d="M20.384 9.91c-0.295 0.037-0.578 0.135-0.833 0.288-0.663 0.386-1.026 1.001-0.81 1.374s0.93 0.363 1.593-0.023c0.258-0.146 0.484-0.344 0.662-0.581 0.082-0.115 0.089-0.269 0.017-0.393l-0.281-0.484c-0.072-0.124-0.209-0.195-0.35-0.18z"></path>
<path fill="#029bc5" style="fill: var(--color3, #029bc5)" d="M16.501 9.88c-0.067-0.015-0.137-0.004-0.196 0.030l-1.556 0.902c-0.13 0.075-0.174 0.243-0.098 0.375 0.017 0.030 0.040 0.057 0.068 0.079l4.171 3.325 5.187-3.009-7.577-1.702z"></path>
<path fill="#e1e6e9" style="fill: var(--color4, #e1e6e9)" d="M33.642 10.583l-14.509 8.733-8.719 2.89-4.505 0.476-0.557-0.994 24.204-14.222c0.721-0.426 1.54-0.645 2.373-0.634 0.365 0.007 0.728 0.062 1.081 0.163 0.313 0.087 0.612 0.22 0.89 0.395 0.31 0.198 0.883 0.282 1.087 0.629 0.001-0 0.526 1.547-1.346 2.563z"></path>
<path fill="#029bc5" style="fill: var(--color3, #029bc5)" d="M18.958 17.393l-5.811 10.346c-0.072 0.146-0.013 0.326 0.13 0.401 0.088 0.046 0.192 0.043 0.277-0.007l1.581-0.936c0.304-0.18 0.568-0.423 0.776-0.713l11.607-14.426-8.561 5.336z"></path>
<path fill="#029bc5" style="fill: var(--color3, #029bc5)" d="M3.039 17.18c-0.107-0.049-0.231-0.043-0.333 0.015l-1.273 0.73c-0.173 0.099-0.231 0.321-0.13 0.494 0.019 0.033 0.044 0.063 0.072 0.088l3.903 3.494 3.752-2.101-5.992-2.721z"></path>
<path fill="#029bc5" style="fill: var(--color3, #029bc5)" d="M6.298 22.315l-1.873 2.873c-0.027 0.041-0.017 0.098 0.023 0.127 0.029 0.021 0.067 0.022 0.097 0.003l1.224-0.727c0.009-0.006 0.018-0.013 0.025-0.022l2.772-3.6-2.268 1.346z"></path>
<path fill="#029bc5" style="fill: var(--color3, #029bc5)" d="M32.942 6.928c-0.356-0.099-0.722-0.152-1.090-0.159-0.328 0.492-0.523 1.063-0.564 1.658 0.002 0.121 0.1 0.218 0.219 0.218 0.037-0 0.073-0.010 0.105-0.028l2.227-1.302c-0.28-0.171-0.582-0.302-0.897-0.387z"></path>
<path fill="#d5d6db" style="fill: var(--color2, #d5d6db)" d="M27.955 9.396l1.399-0.783 1.502 2.51-1.399 0.783-1.502-2.51z"></path>
<path fill="#3a556a" style="fill: var(--color5, #3a556a)" d="M26.99 10.45c-0.169 0.095-0.226 0.308-0.126 0.477l0.162 0.273c0.106 0.165 0.326 0.217 0.492 0.117 0.158-0.096 0.211-0.297 0.122-0.46l-0.162-0.273c-0.1-0.168-0.318-0.228-0.488-0.133z"></path>
<path fill="#3a556a" style="fill: var(--color5, #3a556a)" d="M25.64 11.279c-0.169 0.095-0.226 0.308-0.126 0.477l0.162 0.273c0.106 0.165 0.326 0.217 0.492 0.117 0.158-0.096 0.211-0.297 0.122-0.46l-0.162-0.273c-0.1-0.168-0.318-0.228-0.488-0.133z"></path>
<path fill="#3a556a" style="fill: var(--color5, #3a556a)" d="M24.29 12.109c-0.169 0.095-0.226 0.308-0.126 0.477l0.162 0.273c0.106 0.165 0.326 0.217 0.492 0.117 0.158-0.096 0.211-0.297 0.122-0.46l-0.162-0.273c-0.1-0.168-0.318-0.228-0.488-0.133z"></path>
<path fill="#3a556a" style="fill: var(--color5, #3a556a)" d="M22.94 12.938c-0.169 0.095-0.226 0.308-0.126 0.477l0.162 0.273c0.106 0.165 0.326 0.217 0.492 0.117 0.158-0.096 0.211-0.297 0.122-0.46l-0.162-0.273c-0.1-0.168-0.318-0.228-0.488-0.133z"></path>
<path fill="#3a556a" style="fill: var(--color5, #3a556a)" d="M21.59 13.768c-0.169 0.095-0.226 0.308-0.126 0.476l0.162 0.273c0.1 0.168 0.318 0.227 0.487 0.133s0.226-0.308 0.126-0.476l-0.162-0.273c-0.1-0.168-0.318-0.228-0.487-0.133-0 0-0 0-0 0z"></path>
<path fill="#3a556a" style="fill: var(--color5, #3a556a)" d="M20.241 14.597c-0.169 0.095-0.226 0.308-0.126 0.477l0.162 0.273c0.1 0.168 0.318 0.227 0.487 0.133s0.226-0.308 0.126-0.476l-0.162-0.273c-0.1-0.168-0.318-0.228-0.487-0.133-0 0-0 0-0 0z"></path>
<path fill="#3a556a" style="fill: var(--color5, #3a556a)" d="M18.891 15.426c-0.169 0.095-0.226 0.308-0.126 0.477l0.162 0.273c0.1 0.168 0.318 0.227 0.487 0.132s0.225-0.308 0.126-0.476l-0.162-0.273c-0.1-0.168-0.318-0.228-0.487-0.133z"></path>
<path fill="#3a556a" style="fill: var(--color5, #3a556a)" d="M17.541 16.256c-0.169 0.095-0.226 0.308-0.126 0.477l0.162 0.273c0.1 0.168 0.318 0.227 0.487 0.132s0.225-0.308 0.126-0.476l-0.162-0.273c-0.1-0.168-0.318-0.228-0.487-0.133z"></path>
<path fill="#3a556a" style="fill: var(--color5, #3a556a)" d="M16.192 17.085c-0.169 0.095-0.226 0.308-0.126 0.477l0.162 0.273c0.1 0.168 0.318 0.227 0.487 0.132s0.225-0.308 0.126-0.476l-0.162-0.273c-0.1-0.168-0.318-0.228-0.487-0.133z"></path>
<path fill="#3a556a" style="fill: var(--color5, #3a556a)" d="M14.841 17.915c-0.169 0.095-0.226 0.308-0.126 0.476l0 0 0.162 0.273c0.1 0.168 0.318 0.227 0.487 0.132s0.225-0.308 0.126-0.476l-0.162-0.273c-0.1-0.168-0.318-0.228-0.488-0.133z"></path>
<path fill="#3a556a" style="fill: var(--color5, #3a556a)" d="M13.492 18.744c-0.169 0.095-0.226 0.308-0.126 0.476l0 0 0.162 0.273c0.1 0.168 0.318 0.227 0.487 0.132s0.225-0.308 0.126-0.476l-0.162-0.273c-0.1-0.168-0.318-0.228-0.488-0.133z"></path>
</symbol>
<symbol id="icon-gear" viewBox="0 0 37 32">
<path fill="#fff1da" style="fill: var(--color1, #fff1da)" d="M13.091 23.273c0 4.82 3.907 8.727 8.727 8.727h13.091c1.339 0 2.424-1.085 2.424-2.424v-16.485c0-2.678-2.171-4.848-4.849-4.848h-16.97c-1.339 0-2.424 1.085-2.424 2.424v12.606z"></path>
<path fill="#b6c4cf" style="fill: var(--color2, #b6c4cf)" d="M24.242 13.502v-2.762c0-0.541-0.439-0.98-0.98-0.98h-1.056c-0.422 0-0.797-0.271-0.93-0.672-0.148-0.447-0.328-0.879-0.536-1.294-0.19-0.378-0.117-0.835 0.182-1.134l0.747-0.747c0.383-0.383 0.383-1.004 0-1.386l-1.953-1.953c-0.383-0.383-1.004-0.383-1.386 0l-0.747 0.747c-0.299 0.299-0.756 0.372-1.134 0.182-0.415-0.209-0.847-0.388-1.294-0.536-0.401-0.133-0.672-0.508-0.672-0.93v-1.056c0-0.541-0.439-0.98-0.98-0.98h-2.762c-0.541 0-0.98 0.439-0.98 0.98v1.056c0 0.422-0.271 0.797-0.672 0.93-0.447 0.148-0.879 0.328-1.294 0.536-0.378 0.19-0.835 0.117-1.134-0.182l-0.747-0.747c-0.383-0.383-1.004-0.383-1.386 0l-1.953 1.953c-0.383 0.383-0.383 1.004 0 1.386l0.747 0.747c0.299 0.299 0.372 0.756 0.182 1.134-0.209 0.415-0.388 0.847-0.536 1.294-0.094 0.283-0.308 0.502-0.575 0.605-0.111 0.043-0.182 0.115-0.306 0.115h-1.056c-0.541 0-0.98 0.439-0.98 0.98v2.664c0 0.541 0.439 0.98 0.98 0.98h1.056c0.422 0 0.797 0.319 0.93 0.72 0.148 0.447 0.328 0.879 0.536 1.294 0.19 0.378 0.117 0.835-0.182 1.134l-0.699 0.747c-0.383 0.383-0.383 1.004 0 1.386l1.855 1.855c0.383 0.383 1.004 0.383 1.386 0l0.747-0.747c0.299-0.299 0.756-0.372 1.134-0.182 0.415 0.209 0.945 0.437 1.391 0.585 0.401 0.133 0.672 0.508 0.672 0.93v1.056c0 0.541 0.439 0.98 0.98 0.98h2.616c0.541 0 0.98-0.439 0.98-0.98v-1.056c0-0.124 0.072-0.195 0.115-0.306 0.104-0.267 0.322-0.482 0.605-0.575 0.447-0.148 0.879-0.328 1.294-0.536 0.378-0.19 0.835-0.117 1.134 0.182l0.747 0.747c0.383 0.383 1.004 0.383 1.386 0l1.953-1.953c0.383-0.383 0.383-1.004 0-1.386l-0.747-0.747c-0.299-0.299-0.372-0.756-0.182-1.134 0.209-0.415 0.388-0.847 0.536-1.294 0.133-0.401 0.508-0.672 0.93-0.672h1.056c0.541 0 0.98-0.439 0.98-0.98z"></path>
<path fill="#9facba" style="fill: var(--color3, #9facba)" d="M14.549 21.851c-0.043 0.111-0.066 0.231-0.066 0.355v1.056c0 0.541-0.439 0.98-0.98 0.98h-2.762c-0.541 0-0.98-0.439-0.98-0.98v-1.056c0-0.422-0.271-0.798-0.672-0.93-0.446-0.148-0.879-0.327-1.294-0.536-0.378-0.19-0.835-0.118-1.134 0.181l-0.747 0.747c-0.383 0.383-1.004 0.383-1.387 0l-1.953-1.953c-0.382-0.383-0.382-1.004 0-1.387l0.748-0.747c0.299-0.299 0.372-0.756 0.181-1.134-0.209-0.415-0.388-0.847-0.536-1.294-0.133-0.401-0.508-0.672-0.93-0.672h-1.056c-0.541 0-0.98-0.439-0.98-0.98v-2.762c0-0.541 0.439-0.98 0.98-0.98h1.056c0.124 0 0.244-0.023 0.355-0.066-0.001 0.061-0.001 0.122-0.001 0.184 0 6.614 5.362 11.975 11.975 11.975 0.061 0 0.123-0 0.184-0.001z"></path>
<path fill="#9facba" style="fill: var(--color3, #9facba)" d="M12.121 20.169c4.445 0 8.048-3.603 8.048-8.048s-3.603-8.048-8.048-8.048c-4.445 0-8.048 3.603-8.048 8.048s3.603 8.048 8.048 8.048z"></path>
<path fill="#f8f7f7" style="fill: var(--color4, #f8f7f7)" d="M12.121 18.462c3.502 0 6.341-2.839 6.341-6.341s-2.839-6.341-6.341-6.341c-3.502 0-6.341 2.839-6.341 6.341s2.839 6.341 6.341 6.341z"></path>
</symbol>
</defs>
</svg>
