<?xml version="1.0" encoding="utf-8"?>
<!-- Generator: Adobe Illustrator 24.0.0, SVG Export Plug-In . SVG Version: 6.00 Build 0)  -->
<svg version="1.1" id="Layer_1" xmlns="http://www.w3.org/2000/svg" xmlns:xlink="http://www.w3.org/1999/xlink" x="0px" y="0px"
	 viewBox="0 0 512 512" style="enable-background:new 0 0 512 512;" xml:space="preserve">
<style type="text/css">
	.st0{clip-path:url(#XMLID_14_);fill:url(#XMLID_15_);}
	.st1{fill:#FFFFFF;}
	.st2{filter:url(#Adobe_OpacityMaskFilter);}
	.st3{clip-path:url(#XMLID_16_);}
	.st4{clip-path:url(#XMLID_18_);fill:url(#XMLID_19_);}
	.st5{clip-path:url(#XMLID_16_);mask:url(#XMLID_17_);fill:url(#XMLID_20_);}
	.st6{filter:url(#Adobe_OpacityMaskFilter_1_);}
	.st7{clip-path:url(#XMLID_21_);fill:url(#XMLID_23_);}
	.st8{clip-path:url(#XMLID_21_);mask:url(#XMLID_22_);fill:url(#XMLID_24_);}
	.st9{filter:url(#Adobe_OpacityMaskFilter_2_);}
	.st10{clip-path:url(#XMLID_25_);fill:url(#XMLID_27_);}
	.st11{clip-path:url(#XMLID_25_);mask:url(#XMLID_26_);fill:url(#XMLID_28_);}
</style>
<g id="XMLID_12_">
	<g>
		<defs>
			<path id="XMLID_46_" d="M37.7,212.9L37.7,212.9l1.1,2.9l4.9,12.9l26.8,70.4H159L88.2,228c-9.4-9.4-22.2-15-35.6-15H37.7z"/>
		</defs>
		<clipPath id="XMLID_14_">
			<use xlink:href="#XMLID_46_"  style="overflow:visible;"/>
		</clipPath>
		
			<linearGradient id="XMLID_15_" gradientUnits="userSpaceOnUse" x1="-46.5673" y1="697.8052" x2="-42.1764" y2="697.8052" gradientTransform="matrix(-13.4358 -19.6225 -19.6225 13.4358 13190.6211 -9996.4619)">
			<stop  offset="0" style="stop-color:#BF2026"/>
			<stop  offset="0.1213" style="stop-color:#CA2427"/>
			<stop  offset="0.3837" style="stop-color:#DB2B2A"/>
			<stop  offset="0.6659" style="stop-color:#E8302D"/>
			<stop  offset="1" style="stop-color:#EE312E"/>
		</linearGradient>
		<polygon id="XMLID_47_" class="st0" points="76.4,355.6 -2.4,240.4 120.3,156.4 199.2,271.6 		"/>
	</g>
	<g id="XMLID_11_">
		<path id="XMLID_45_" class="st1" d="M43.8,228.7c9.7,16.5,35.1,18.3,37.8,44c0.1,1.1,0.9,1.9,2,2.1c14.6,2.3,28.9,8.3,41.3,18.2
			l0,0c0.1,0.1,0.2,0.1,0.3,0.1c0.1,0,0.2,0,0.3-0.1c0.2-0.2,0.2-0.4,0-0.6c-8.6-9-19.1-16.2-30.8-21l-3.6-1.4
			c-1.8-0.7-3.1-2.6-3.1-4.7c0.2-7.7,18.4-6.1,20.2-9.8l0.3-0.6c-3.7-3.2-8.2-5.6-13.1-6.9c0,0.2-0.2,1.1,0.8,2.7
			c1.1,1.8-1.2,4.6-4.5,1.5l-0.3-0.3C67,229.4,48.6,241,38.8,215.8L43.8,228.7z"/>
	</g>
	<g>
		<defs>
			<path id="XMLID_41_" d="M94.6,253.5v6.1c2.6-0.8,5.7-1.2,8.2-1.8v-3.4c0,0-4,0.2-6.5-3.8C97,251.8,96.2,253.4,94.6,253.5"/>
		</defs>
		<clipPath id="XMLID_16_">
			<use xlink:href="#XMLID_41_"  style="overflow:visible;"/>
		</clipPath>
		<defs>
			<filter id="Adobe_OpacityMaskFilter" filterUnits="userSpaceOnUse" x="93.8" y="249.9" width="9.8" height="10.4">
				<feColorMatrix  type="matrix" values="1 0 0 0 0  0 1 0 0 0  0 0 1 0 0  0 0 0 1 0"/>
			</filter>
		</defs>
		<mask maskUnits="userSpaceOnUse" x="93.8" y="249.9" width="9.8" height="10.4" id="XMLID_17_">
			<g class="st2">
				<g>
					<defs>
						
							<rect id="XMLID_42_" x="93.8" y="250.6" transform="matrix(8.701459e-02 -0.9962 0.9962 8.701459e-02 -164.0399 331.163)" width="9.7" height="9"/>
					</defs>
					<clipPath id="XMLID_18_" class="st3">
						<use xlink:href="#XMLID_42_"  style="overflow:visible;"/>
					</clipPath>
					
						<linearGradient id="XMLID_19_" gradientUnits="userSpaceOnUse" x1="-238.6773" y1="824.7453" x2="-234.2864" y2="824.7453" gradientTransform="matrix(0.181 -2.069 -2.069 -0.181 1847.8567 -84.6354)">
						<stop  offset="0" style="stop-color:#000000"/>
						<stop  offset="0.65" style="stop-color:#000000"/>
						<stop  offset="0.6967" style="stop-color:#3D3D3D"/>
						<stop  offset="0.7472" style="stop-color:#777777"/>
						<stop  offset="0.796" style="stop-color:#A8A8A8"/>
						<stop  offset="0.8419" style="stop-color:#CECECE"/>
						<stop  offset="0.8841" style="stop-color:#E9E9E9"/>
						<stop  offset="0.9215" style="stop-color:#F9F9F9"/>
						<stop  offset="0.95" style="stop-color:#FFFFFF"/>
						<stop  offset="1" style="stop-color:#FFFFFF"/>
					</linearGradient>
					<polygon id="XMLID_43_" class="st4" points="92.9,260.2 93.8,249 104.4,249.9 103.5,261.1 					"/>
				</g>
			</g>
		</mask>
		
			<linearGradient id="XMLID_20_" gradientUnits="userSpaceOnUse" x1="-238.6767" y1="824.7454" x2="-234.2858" y2="824.7454" gradientTransform="matrix(0.181 -2.069 -2.069 -0.181 1847.8567 -84.6354)">
			<stop  offset="0" style="stop-color:#FFFFFF"/>
			<stop  offset="0.65" style="stop-color:#FFFFFF"/>
			<stop  offset="0.7191" style="stop-color:#DBDBDB"/>
			<stop  offset="0.815" style="stop-color:#BBBDBD"/>
			<stop  offset="0.8954" style="stop-color:#A9ACAD"/>
			<stop  offset="0.95" style="stop-color:#A3A6A7"/>
			<stop  offset="1" style="stop-color:#A3A6A7"/>
		</linearGradient>
		<polygon id="XMLID_44_" class="st5" points="93.8,259.5 94.6,249.9 103.5,250.6 102.7,260.3 		"/>
	</g>
	<g>
		<defs>
			<path id="XMLID_38_" d="M86.6,275.2c13.6,2.6,26.7,8.5,38.2,17.7c-18.4-15.8-29.7-18.2-34.9-18.2
				C87.9,274.8,86.8,275.2,86.6,275.2"/>
		</defs>
		<clipPath id="XMLID_21_">
			<use xlink:href="#XMLID_38_"  style="overflow:visible;"/>
		</clipPath>
		<defs>
			<filter id="Adobe_OpacityMaskFilter_1_" filterUnits="userSpaceOnUse" x="86.6" y="274.8" width="38.2" height="18.2">
				<feColorMatrix  type="matrix" values="1 0 0 0 0  0 1 0 0 0  0 0 1 0 0  0 0 0 1 0"/>
			</filter>
		</defs>
		<mask maskUnits="userSpaceOnUse" x="86.6" y="274.8" width="38.2" height="18.2" id="XMLID_22_">
			<g class="st6">
				
					<linearGradient id="XMLID_23_" gradientUnits="userSpaceOnUse" x1="-80.2627" y1="630.741" x2="-75.872" y2="630.741" gradientTransform="matrix(8.7084 0 0 -8.7084 785.5606 5776.5957)">
					<stop  offset="0" style="stop-color:#000000"/>
					<stop  offset="9.916679e-02" style="stop-color:#343434"/>
					<stop  offset="0.2151" style="stop-color:#696969"/>
					<stop  offset="0.3326" style="stop-color:#979797"/>
					<stop  offset="0.4492" style="stop-color:#BCBCBC"/>
					<stop  offset="0.5649" style="stop-color:#DADADA"/>
					<stop  offset="0.6792" style="stop-color:#EEEEEE"/>
					<stop  offset="0.7916" style="stop-color:#FBFBFB"/>
					<stop  offset="0.9" style="stop-color:#FFFFFF"/>
					<stop  offset="1" style="stop-color:#FFFFFF"/>
				</linearGradient>
				<rect id="XMLID_39_" x="86.6" y="274.8" class="st7" width="38.2" height="18.2"/>
			</g>
		</mask>
		
			<linearGradient id="XMLID_24_" gradientUnits="userSpaceOnUse" x1="-80.2627" y1="630.741" x2="-75.872" y2="630.741" gradientTransform="matrix(8.7084 0 0 -8.7084 785.5606 5776.5957)">
			<stop  offset="0" style="stop-color:#FFFFFF"/>
			<stop  offset="8.038371e-02" style="stop-color:#EBEBEA"/>
			<stop  offset="0.304" style="stop-color:#C9CACA"/>
			<stop  offset="0.52" style="stop-color:#B4B6B6"/>
			<stop  offset="0.7231" style="stop-color:#A7AAAB"/>
			<stop  offset="0.9" style="stop-color:#A3A6A7"/>
			<stop  offset="1" style="stop-color:#A3A6A7"/>
		</linearGradient>
		<rect id="XMLID_40_" x="86.6" y="274.8" class="st8" width="38.2" height="18.2"/>
	</g>
	<g>
		<defs>
			<path id="XMLID_35_" d="M38.8,215.8l4.9,12.9c9.7,16.5,35.1,18.3,37.8,44c-2.8-32.8-17.2-27.9-32.7-42.8
				C44.9,227,41.6,222.8,38.8,215.8z"/>
		</defs>
		<clipPath id="XMLID_25_">
			<use xlink:href="#XMLID_35_"  style="overflow:visible;"/>
		</clipPath>
		<defs>
			<filter id="Adobe_OpacityMaskFilter_2_" filterUnits="userSpaceOnUse" x="38.8" y="215.8" width="42.7" height="56.8">
				<feColorMatrix  type="matrix" values="1 0 0 0 0  0 1 0 0 0  0 0 1 0 0  0 0 0 1 0"/>
			</filter>
		</defs>
		<mask maskUnits="userSpaceOnUse" x="38.8" y="215.8" width="42.7" height="56.8" id="XMLID_26_">
			<g class="st9">
				
					<linearGradient id="XMLID_27_" gradientUnits="userSpaceOnUse" x1="-79.8073" y1="638.7628" x2="-75.4166" y2="638.7628" gradientTransform="matrix(9.7344 0 0 -9.7344 815.7278 6462.2241)">
					<stop  offset="0" style="stop-color:#000000"/>
					<stop  offset="0.25" style="stop-color:#000000"/>
					<stop  offset="0.3281" style="stop-color:#131313"/>
					<stop  offset="0.4858" style="stop-color:#434343"/>
					<stop  offset="0.709" style="stop-color:#909090"/>
					<stop  offset="0.9868" style="stop-color:#FAFAFA"/>
					<stop  offset="1" style="stop-color:#FFFFFF"/>
				</linearGradient>
				<rect id="XMLID_36_" x="38.8" y="215.8" class="st10" width="42.7" height="56.8"/>
			</g>
		</mask>
		
			<linearGradient id="XMLID_28_" gradientUnits="userSpaceOnUse" x1="-79.8073" y1="638.7628" x2="-75.4161" y2="638.7628" gradientTransform="matrix(9.7344 0 0 -9.7344 815.7279 6462.2246)">
			<stop  offset="0" style="stop-color:#FFFFFF"/>
			<stop  offset="0.25" style="stop-color:#FFFFFF"/>
			<stop  offset="0.4022" style="stop-color:#EEEDED"/>
			<stop  offset="0.6739" style="stop-color:#CCCDCD"/>
			<stop  offset="1" style="stop-color:#A3A6A7"/>
		</linearGradient>
		<rect id="XMLID_37_" x="38.8" y="215.8" class="st11" width="42.7" height="56.8"/>
	</g>
	<g id="XMLID_10_">
		<path d="M168,283.3c-17.5,0-28.6-9.1-28.6-20.5c0-11.6,11.8-20.5,29.1-20.5c17.3,0,29.1,8.9,29.1,20c0,5-2.2,9-6.4,12.5h10.3
			l-2.5,4.2c-1.6,2.7-3.5,4.3-7.6,4.3H168z M168.5,274c9.5,0,17.6-4.7,17.6-11.2c0-6.5-8-11.2-17.6-11.2c-9.5,0-17.6,4.7-17.6,11.2
			C150.9,269.3,158.9,274,168.5,274"/>
		<path d="M244.3,276.3h-27.5l-3.9,6.9h-11.4l19.1-33c1.5-2.6,3.7-4.6,8-4.6h4.3c4.3,0,6.5,2,8,4.6l19.1,33h-11.6L244.3,276.3z
			 M221.5,268.1h18.2l-8.4-15c-0.2-0.4-0.4-0.5-0.6-0.5c-0.3,0-0.5,0.1-0.7,0.5L221.5,268.1z"/>
		<path id="XMLID_5_" d="M314.2,245.6v37.7H304l-29.9-25v25h-10.2v-37.7h6.4c3.3,0,4.9,0.9,6.8,2.5l27,22.4v-24.9H314.2z"/>
		<polygon id="XMLID_4_" points="350.5,254.1 350.5,283.3 340.3,283.3 340.3,254.1 319.4,254.1 319.4,245.6 371.3,245.6 
			371.3,254.1 		"/>
		<path d="M405.3,276.3h-27.5l-3.9,6.9h-11.4l19.1-33c1.5-2.6,3.7-4.6,8-4.6h4.3c4.3,0,6.5,2,8,4.6l19.1,33h-11.6L405.3,276.3z
			 M382.4,268.1h18.2l-8.4-15c-0.2-0.4-0.4-0.5-0.6-0.5c-0.3,0-0.5,0.1-0.7,0.5L382.4,268.1z"/>
		<path id="XMLID_1_" d="M424.4,280.6l-1-0.3l2.6-8.2c7.3,2.4,15.2,3.3,22.2,3.3c11.6,0,14.5-1.4,14.5-2.8c0-0.6-0.4-1.1-1.3-1.4
			c-1.2-0.4-4.4-1.1-13.9-2.6c-10.5-1.7-15.2-2.6-18.7-4.2c-3.5-1.6-5.6-4.2-5.6-7.9c0-2.9,1.4-5.2,3.7-7c4-3.1,10.9-4.4,18.4-4.4
			c9.6,0,17.7,0.8,26.7,3l0.8,0.3l-2.2,8c-10-2.2-15.6-2.8-23.2-2.9c-5.4,0-9.1,0.4-11,1c-1.1,0.4-1.6,0.9-1.6,1.5
			c0,0.6,0.4,1.1,1.5,1.4c1.2,0.4,3.2,0.9,13.5,2.5c11.1,1.8,14.8,2.6,17.9,3.8c4.2,1.6,6.7,4.6,6.7,8.3c0,4.7-3.6,8.1-9.9,10
			c-3.9,1.2-9,1.8-14.9,1.8C440.4,283.8,430.6,282.6,424.4,280.6"/>
	</g>
</g>
</svg>
